<svg width="24" height="24" viewBox="0 0 24 24" fill="none" xmlns="http://www.w3.org/2000/svg">
<g clip-path="url(#clip0_4_2)">
<path d="M20.6667 21.3333C20.6667 22.0406 20.3857 22.7189 19.8856 23.219C19.3855 23.719 18.7072 24 18 24H3.33333C2.62609 24 1.94781 23.719 1.44771 23.219C0.947618 22.7189 0.666666 22.0406 0.666666 21.3333V2.66667C0.666666 1.95942 0.947618 1.28115 1.44771 0.781049C1.94781 0.280952 2.62609 0 3.33333 0L18 0C18.7072 0 19.3855 0.280952 19.8856 0.781049C20.3857 1.28115 20.6667 1.95942 20.6667 2.66667V21.3333Z" fill="#CCD6DD"/>
<path d="M18 16C18 16.1768 17.9298 16.3464 17.8047 16.4714C17.6797 16.5964 17.5101 16.6667 17.3333 16.6667H4C3.82319 16.6667 3.65362 16.5964 3.5286 16.4714C3.40357 16.3464 3.33333 16.1768 3.33333 16C3.33333 15.8232 3.40357 15.6536 3.5286 15.5286C3.65362 15.4036 3.82319 15.3333 4 15.3333H17.3333C17.5101 15.3333 17.6797 15.4036 17.8047 15.5286C17.9298 15.6536 18 15.8232 18 16ZM7.33333 18.6667C7.33333 18.8435 7.2631 19.013 7.13807 19.1381C7.01305 19.2631 6.84348 19.3333 6.66667 19.3333H4C3.82319 19.3333 3.65362 19.2631 3.5286 19.1381C3.40357 19.013 3.33333 18.8435 3.33333 18.6667C3.33333 18.4899 3.40357 18.3203 3.5286 18.1953C3.65362 18.0702 3.82319 18 4 18H6.66667C6.84348 18 7.01305 18.0702 7.13807 18.1953C7.2631 18.3203 7.33333 18.4899 7.33333 18.6667ZM18 5.33333C18 5.51014 17.9298 5.67971 17.8047 5.80474C17.6797 5.92976 17.5101 6 17.3333 6H4C3.82319 6 3.65362 5.92976 3.5286 5.80474C3.40357 5.67971 3.33333 5.51014 3.33333 5.33333C3.33333 5.15652 3.40357 4.98695 3.5286 4.86193C3.65362 4.7369 3.82319 4.66667 4 4.66667H17.3333C17.5101 4.66667 17.6797 4.7369 17.8047 4.86193C17.9298 4.98695 18 5.15652 18 5.33333ZM18 8C18 8.17681 17.9298 8.34638 17.8047 8.4714C17.6797 8.59643 17.5101 8.66667 17.3333 8.66667H4C3.82319 8.66667 3.65362 8.59643 3.5286 8.4714C3.40357 8.34638 3.33333 8.17681 3.33333 8C3.33333 7.82319 3.40357 7.65362 3.5286 7.5286C3.65362 7.40357 3.82319 7.33333 4 7.33333H17.3333C17.5101 7.33333 17.6797 7.40357 17.8047 7.5286C17.9298 7.65362 18 7.82319 18 8ZM18 10.6667C18 10.8435 17.9298 11.013 17.8047 11.1381C17.6797 11.2631 17.5101 11.3333 17.3333 11.3333H4C3.82319 11.3333 3.65362 11.2631 3.5286 11.1381C3.40357 11.013 3.33333 10.8435 3.33333 10.6667C3.33333 10.4899 3.40357 10.3203 3.5286 10.1953C3.65362 10.0702 3.82319 10 4 10H17.3333C17.5101 10 17.6797 10.0702 17.8047 10.1953C17.9298 10.3203 18 10.4899 18 10.6667ZM18 13.3333C18 13.5101 17.9298 13.6797 17.8047 13.8047C17.6797 13.9298 17.5101 14 17.3333 14H4C3.82319 14 3.65362 13.9298 3.5286 13.8047C3.40357 13.6797 3.33333 13.5101 3.33333 13.3333C3.33333 13.1565 3.40357 12.987 3.5286 12.8619C3.65362 12.7369 3.82319 12.6667 4 12.6667H17.3333C17.5101 12.6667 17.6797 12.7369 17.8047 12.8619C17.9298 12.987 18 13.1565 18 13.3333Z" fill="#99AAB5"/>
<path d="M20.6667 4.18133C20.1153 3.82467 19.442 3.79533 18.986 4.166L18.458 4.59667L17.4687 5.404L17.402 5.45733L15.818 6.74933L7.89933 13.2067C7.608 13.4447 7.37067 14.0193 7.11733 14.5893C6.86533 15.156 6.47133 16.4907 6.15533 17.5167C6.05667 17.6833 5.44533 18.7473 5.788 19.152C6.13467 19.562 7.33867 19.1587 7.5 19.1013C8.584 18.9853 9.98733 18.8527 10.5987 18.7147C11.2147 18.574 11.8347 18.4513 12.126 18.2133C12.1313 18.2093 12.1327 18.2013 12.1373 18.198L20.0427 11.754L20.5707 11.3233L20.6667 11.2447V4.18133Z" fill="#66757F"/>
<path d="M12.0967 15.0173C12.0967 15.0173 11.2473 13.7633 10.6853 13.3153C10.2373 12.7533 8.986 11.9047 8.986 11.9047C8.68733 11.6073 8.192 11.5847 7.9 11.876C7.60867 12.168 7.37133 12.7867 7.118 13.4033C6.80333 14.1673 6.26733 16.1727 5.93933 17.238C5.884 17.4193 6.284 16.938 6.27467 17.098C6.268 17.2227 6.29267 17.3607 6.324 17.4853L6.22667 17.5913L6.36533 17.636C6.382 17.6907 6.39867 17.7387 6.41067 17.776L6.51667 17.6787C6.64133 17.71 6.77933 17.7347 6.90333 17.728C7.06333 17.7187 6.58133 18.1193 6.76333 18.0633C7.82867 17.7347 9.83467 17.1993 10.598 16.8847C11.214 16.6307 11.834 16.394 12.1253 16.102C12.418 15.812 12.396 15.3167 12.0967 15.0173Z" fill="#D99E82"/>
<path d="M16.8747 2.90067C16.7358 3.03925 16.6257 3.20385 16.5505 3.38505C16.4754 3.56625 16.4367 3.7605 16.4367 3.95667C16.4367 4.15284 16.4754 4.34708 16.5505 4.52828C16.6257 4.70948 16.7358 4.87408 16.8747 5.01267L18.986 7.12467C19.2662 7.40443 19.646 7.56156 20.042 7.56156C20.438 7.56156 20.8178 7.40443 21.098 7.12467L23.2107 5.01267C23.4904 4.73243 23.6476 4.35264 23.6476 3.95667C23.6476 3.56069 23.4904 3.1809 23.2107 2.90067L21.098 0.788666C20.9593 0.649981 20.7947 0.539969 20.6135 0.464913C20.4323 0.389856 20.2381 0.351225 20.042 0.351225C19.8459 0.351225 19.6517 0.389856 19.4705 0.464913C19.2893 0.539969 19.1247 0.649981 18.986 0.788666L16.8747 2.90067Z" fill="#EA596E"/>
<path d="M7.89933 11.8767L10.0127 13.99L12.1227 16.1007L20.0433 8.18133L15.8187 3.95733L7.89933 11.8767Z" fill="#FFCC4D"/>
<path d="M7.532 17.828C7.532 17.828 6.15867 18.5833 5.788 18.212C5.41667 17.84 6.17533 16.4713 6.17533 16.4713C6.17533 16.4713 7.476 16.4953 7.532 17.828Z" fill="#292F33"/>
<path d="M15.8187 3.95667L18.4587 1.31667L22.6827 5.54133L20.0427 8.18133L15.8187 3.95667Z" fill="#CCD6DD"/>
<path d="M17.402 2.372L17.93 1.844L22.154 6.06733L21.626 6.59533L17.402 2.372ZM16.3467 3.428L16.874 2.90067L21.098 7.124L20.57 7.652L16.3467 3.428Z" fill="#99AAB5"/>
</g>
<defs>
<clipPath id="clip0_4_2">
<rect width="24" height="24" fill="white"/>
</clipPath>
</defs>
</svg>